<?xml version="1.0" standalone="no"?>
<!DOCTYPE svg PUBLIC "-//W3C//DTD SVG 20010904//EN"
 "http://www.w3.org/TR/2001/REC-SVG-20010904/DTD/svg10.dtd">
<svg version="1.0" xmlns="http://www.w3.org/2000/svg"
 width="512.000000pt" height="512.000000pt" viewBox="0 0 512.000000 512.000000"
 preserveAspectRatio="xMidYMid meet">
<metadata>
Created by potrace 1.14, written by Peter Selinger 2001-2017
</metadata>
<g transform="translate(0.000000,512.000000) scale(0.100000,-0.100000)"
fill="#000000" stroke="none">
<path d="M857 4853 c-1 -1 -27 -2 -57 -4 -47 -2 -126 -22 -180 -46 -8 -3 -17
-7 -20 -7 -24 -4 -122 -78 -171 -128 -68 -70 -130 -186 -150 -283 -18 -89 -18
-2297 0 -2375 57 -242 270 -435 506 -457 78 -7 77 -7 100 -20 19 -11 20 -23
21 -175 1 -90 7 -183 14 -208 51 -192 254 -311 450 -262 94 23 152 65 234 170
27 34 50 62 51 62 1 0 29 -26 62 -58 69 -67 177 -124 268 -143 42 -8 219 -12
595 -14 294 -1 541 -3 548 -3 7 -1 121 -109 252 -240 276 -274 309 -297 450
-306 130 -10 286 86 345 211 29 59 35 91 39 200 2 43 9 88 16 100 15 24 63 43
111 43 19 0 62 7 97 15 216 51 384 241 409 464 4 31 6 477 6 991 0 865 -1 939
-18 995 -48 163 -141 277 -289 353 -89 46 -172 59 -374 58 l-172 -1 -1 270 c0
149 -2 277 -4 285 -1 8 -5 29 -8 45 -34 184 -195 372 -371 432 -60 20 -49 17
-111 28 -39 6 -2642 15 -2648 8z"/>
</g>
</svg>
